<svg xmlns="http://www.w3.org/2000/svg" viewBox="0 0 299.6 194.88"><defs><style>.cls-1{font-size:83px;font-family:AquireRegular, Aquire;}.cls-1,.cls-3{fill:rgb(1, 184, 184);}.cls-2{fill:none;stroke:rgb(1, 184, 184);stroke-miterlimit:10;stroke-width:16px;}</style></defs><title>LOGO</title><g id="Layer_2" data-name="Layer 2"><g id="Layer_1-2" data-name="Layer 1"><text class="cls-1" transform="translate(64.35 110.6)">&lt;Sk&gt;</text><rect class="cls-2" x="25.3" y="8" width="249" height="132" rx="13.5"/><path class="cls-3" d="M3.09,157.29H119.52a3,3,0,0,1,3,3.09l-.07,3.76a3,3,0,0,0,3,3.09H172a3,3,0,0,0,3-3l.08-4a3,3,0,0,1,3-3H296.44a3,3,0,0,1,3,2.51c1.5,8.59-5.88,36.3-54.06,35h-209a13.33,13.33,0,0,1-3.33-.42c-7.33-1.86-34.44-10.35-33-34.22A3.07,3.07,0,0,1,3.09,157.29Z"/></g></g></svg>